<svg width="60" height="45" viewBox="0 0 60 45" fill="none" xmlns="http://www.w3.org/2000/svg">
<g id="&#240;&#159;&#166;&#134; icon &#34;people&#34;">
<path id="Vector" d="M0 32.1631C1.37596 33.9557 2.90048 35.6221 4.55641 37.1434C4.55132 36.994 4.53095 36.8524 4.53095 36.703C4.54091 34.0427 5.33274 31.4478 6.80237 29.2592C8.27199 27.0707 10.3506 25.391 12.7651 24.441C13.2092 24.2681 13.5974 23.9708 13.8861 23.5828C14.1747 23.1949 14.3522 22.7316 14.3986 22.2453C14.4449 21.7589 14.3583 21.269 14.1484 20.8307C13.9385 20.3924 13.6138 20.0231 13.2108 19.7647C12.1097 19.0646 11.2017 18.0852 10.5737 16.9203C9.94584 15.7554 9.61908 14.4442 9.62476 13.1121C9.6192 11.5849 10.0476 10.0895 10.8571 8.80965C11.6666 7.52983 12.8221 6.52149 14.1812 5.90872C15.5404 5.29595 17.0439 5.10547 18.5069 5.36072C19.9698 5.61597 21.3284 6.30582 22.4153 7.34538C24.0075 6.40484 25.7524 5.7698 27.5652 5.47121C26.5716 4.04262 25.3088 2.83448 23.852 1.91877C22.3951 1.00307 20.7741 0.398535 19.0855 0.141195C17.3969 -0.116145 15.6752 -0.0210257 14.023 0.420885C12.3709 0.862796 10.8221 1.64245 9.46888 2.71341C8.11568 3.78436 6.98579 5.1247 6.14654 6.65455C5.30728 8.1844 4.77583 9.87247 4.58385 11.6182C4.39187 13.3639 4.54328 15.1315 5.02908 16.8157C5.51487 18.4999 6.32511 20.0662 7.4115 21.4213C3.746 23.9468 1.10872 27.7691 0 32.1631ZM60 32.1631C58.8924 27.7672 56.255 23.9428 52.5885 21.4161C53.6713 20.0606 54.4783 18.4948 54.9614 16.8119C55.4446 15.129 55.594 13.3633 55.4008 11.6197C55.2076 9.8762 54.6758 8.19044 53.837 6.66267C52.9981 5.1349 51.8693 3.79631 50.5178 2.72647C49.1662 1.65664 47.6194 0.877398 45.9694 0.435083C44.3194 -0.00723251 42.5998 -0.103594 40.9129 0.151725C39.2259 0.407045 37.6061 1.00883 36.1497 1.92132C34.6932 2.8338 33.4299 4.03835 32.4348 5.46335C34.2476 5.76182 35.9926 6.39686 37.5847 7.33752C38.365 6.59888 39.2865 6.03589 40.2903 5.68453C41.294 5.33317 42.3579 5.20116 43.414 5.29693C44.4702 5.39271 45.4952 5.71417 46.4238 6.24076C47.3524 6.76736 48.164 7.48752 48.8068 8.35522C49.4497 9.22293 49.9095 10.2191 50.1571 11.2801C50.4047 12.3411 50.4345 13.4435 50.2446 14.517C50.0547 15.5905 49.6493 16.6115 49.0543 17.5146C48.4594 18.4177 47.6879 19.1832 46.7892 19.7621C46.3862 20.0205 46.0615 20.3897 45.8516 20.828C45.6417 21.2664 45.5551 21.7563 45.6014 22.2426C45.6478 22.7289 45.8253 23.1922 46.1139 23.5802C46.4026 23.9682 46.7908 24.2654 47.2349 24.4383C49.6498 25.3886 51.7287 27.0686 53.1984 29.2577C54.668 31.4467 55.4596 34.0423 55.4691 36.703C55.4691 36.8524 55.4487 36.994 55.4436 37.1408C57.0994 35.6203 58.6239 33.9548 60 32.1631Z" fill="white"/>
<path id="Vector_2" d="M47.7112 42.6899C47.4345 39.9999 46.5874 37.4052 45.2297 35.089C43.8721 32.7727 42.037 30.7915 39.854 29.285C41.7266 26.9459 42.7456 24.0065 42.7345 20.9757C42.7334 18.8758 42.242 16.807 41.3017 14.9433C40.3614 13.0797 38.9997 11.4759 37.3314 10.267C35.6631 9.05803 33.737 8.27936 31.7152 7.99652C29.6935 7.71369 27.6352 7.93497 25.7139 8.64173C23.7926 9.3485 22.0644 10.5201 20.6749 12.0577C19.2854 13.5954 18.2752 15.4542 17.7295 17.4776C17.1837 19.501 17.1184 21.6297 17.5389 23.6845C17.9595 25.7394 18.8536 27.6601 20.146 29.285C17.963 30.7915 16.1279 32.7727 14.7703 35.089C13.4126 37.4052 12.5655 39.9999 12.2888 42.6899C13.9056 43.5544 15.5807 44.2981 17.3011 44.9153C17.296 44.7974 17.2655 44.6873 17.2655 44.5667C17.2761 41.9065 18.0682 39.3119 19.5378 37.1235C21.0073 34.9351 23.0856 33.2553 25.4996 32.3046C25.9443 32.132 26.3332 31.8348 26.6224 31.4466C26.9115 31.0583 27.0893 30.5946 27.1357 30.1078C27.182 29.621 27.0951 29.1305 26.8848 28.6919C26.6744 28.2533 26.349 27.884 25.9453 27.6257C24.8439 26.9266 23.9356 25.9477 23.3076 24.7832C22.6796 23.6187 22.3531 22.3076 22.3593 20.9757C22.3593 18.8901 23.1643 16.89 24.5972 15.4153C26.0301 13.9405 27.9736 13.1121 30 13.1121C32.0264 13.1121 33.9699 13.9405 35.4028 15.4153C36.8357 16.89 37.6407 18.8901 37.6407 20.9757C37.6469 22.3076 37.3204 23.6187 36.6924 24.7832C36.0644 25.9477 35.1561 26.9266 34.0547 27.6257C33.651 27.884 33.3256 28.2533 33.1152 28.6919C32.9049 29.1305 32.818 29.621 32.8643 30.1078C32.9107 30.5946 33.0885 31.0583 33.3777 31.4466C33.6668 31.8348 34.0557 32.132 34.5004 32.3046C36.9144 33.2553 38.9927 34.9351 40.4622 37.1235C41.9318 39.3119 42.7239 41.9065 42.7345 44.5667C42.7345 44.6873 42.704 44.7974 42.7014 44.9153C44.421 44.298 46.0952 43.5543 47.7112 42.6899Z" fill="white"/>
</g>
</svg>
